# xmcd
#
# Track frame offsets: 
#        150
#        12630
#        24487
#        37797
#        51262
#        63815
#        75792
#        89570
#        105855
#        117740
#        127215
#        136900
#        153565
#        170547
#        187305
#        204995
#        216310
#        231647
#
# Disc length: 3260 seconds
#
# Revision: 1
# Processed by: cddbd v1.5.2PL0 Copyright (c) Steve Scherf et al.
# Submitted via: ExactAudioCopyFreeDBPlugin 1.0
#
DISCID=fe0cba12
DTITLE=Tina Turner - Selection Of Tina Turner CD1
DYEAR=1995
DGENRE=Blues
TTITLE0=Stand By Your Man
TTITLE1=Soul Deep
TTITLE2=Am I A Fool In Love
TTITLE3=It's Crazy Baby
TTITLE4=Rock Me Baby
TTITLE5=Knock On Wood
TTITLE6=I Need A Man
TTITLE7=Shake A Hand
TTITLE8=If You Want It
TTITLE9=Ain't Nobody's Business
TTITLE10=If I Can't Be First
TTITLE11=Living For The City
TTITLE12=Golden Empire
TTITLE13=I Idolize You
TTITLE14=Only Women Bleed
TTITLE15=You're So Fine
TTITLE16=We Had It All
TTITLE17=I Better Get Ta Steppin'
EXTD=(p) 1995 Telma srl
EXTT0=
EXTT1=
EXTT2=
EXTT3=
EXTT4=
EXTT5=
EXTT6=
EXTT7=
EXTT8=
EXTT9=
EXTT10=
EXTT11=
EXTT12=
EXTT13=
EXTT14=
EXTT15=
EXTT16=
EXTT17=
PLAYORDER=
